<svg width="320" height="78" viewBox="0 0 320 78" fill="none" xmlns="http://www.w3.org/2000/svg">
<path d="M320 66.1046C320 72.2985 314.932 77.3662 308.738 77.3662H11.2618C5.06781 77.3662 0 72.2985 0 66.1046V11.2616C0 5.06773 5.06781 0 11.2618 0H308.738C314.932 0 320 5.06773 320 11.2616L320 66.1046Z" fill="#25B60C"/>
<mask id="mask0_2030_689" style="mask-type:luminance" maskUnits="userSpaceOnUse" x="4" y="0" width="135" height="78">
<path d="M138.536 0H4.50488V77.3666H138.536V0Z" fill="white"/>
</mask>
<g mask="url(#mask0_2030_689)">
<path d="M98.5001 0H131L47.7976 36.0154L50.2658 41.7355L84.7393 26.8597L86.8265 26.1438L88.967 25.8015L91.1315 25.7155L93.2743 26.0451L95.2789 26.7009L97.2309 27.6795L99.0039 28.9153L100.612 30.4248L101.931 32.1422L102.878 34.1253L103.781 36.22L104.54 38.1889L104.884 40.3267L104.88 42.5317L104.562 44.6692L103.935 46.7627L103.038 48.6693L101.808 50.4547L100.258 51.9724L98.5425 53.2922L96.589 54.3197L42.0001 77.5H10L86.9241 44.5423L84.8373 39.7062L49.3949 54.9999L47.3989 55.6714L45.2554 56.0299L43.0917 56.0971L40.9463 55.7882L38.8644 55.1549L36.9089 54.183L35.1344 52.939L33.6066 51.4025L32.2953 49.6746L31.2972 47.8168L29.9416 44.6756L29.2719 42.6687L28.9172 40.5313L28.8458 38.3646L29.1589 36.2237L29.7926 34.1324L30.7626 32.1887L32.004 30.403L33.5432 28.8883L35.2703 27.5662L37.1259 26.568L98.5001 0Z" fill="white"/>
</g>
<path d="M287.665 26.2481V33.948H298.668V32.2104H290.647V28.3056H300.289L300.985 28.363L301.679 28.5368L302.343 28.7947L302.952 29.1739L303.5 29.6341L303.967 30.1859L304.345 30.794L304.603 31.4619L304.778 32.1533L304.835 32.8786V33.6316L304.777 34.3272L304.602 35.0198L304.344 35.6876L303.967 36.2946L303.499 36.8464L302.951 37.3089L302.342 37.6854L301.678 37.9429L300.984 38.1178L300.288 38.1753H286.043L285.321 38.1178L284.625 37.9429L283.988 37.6854L283.379 37.3089L282.829 36.8464L282.367 36.2946L281.989 35.6876L281.729 35.0198L281.554 34.3272L281.498 33.6316V26.5379L281.554 25.8442L281.729 25.1501L281.989 24.4819L282.367 23.8753L282.829 23.325L283.379 22.8621L283.988 22.483L284.625 22.2243L285.321 22.0505L286.043 21.9912H304.835V26.2481H287.665ZM279.036 38.1757H272.755V26.2481H261.898V38.1757H255.789V21.9912H274.492L275.218 22.0505L275.91 22.2243L276.577 22.483L277.184 22.8621L277.706 23.325L278.169 23.8753L278.545 24.4819L278.833 25.1501L278.979 25.8442L279.036 26.5379V38.1757H279.036ZM246.899 21.9912H253.269V38.1757H246.899V21.9912ZM220.689 21.9912H244.201V26.2481H235.486V38.1757H229.203V26.2481H220.689V21.9912ZM218.578 27.6678L218.52 28.3619L218.345 29.056L218.086 29.7201L217.709 30.3308L217.246 30.8811L216.698 31.3436L216.088 31.7186L215.423 31.9818L214.727 32.1526L214.116 32.2062L214.033 32.2104V32.5321V32.6184L218.232 38.1757H211.715L204.246 28.3056H211.802V26.2481H201.032V38.1757H194.922V21.9912H214.032L214.726 22.0505L215.422 22.2243L216.087 22.483L216.698 22.8621L217.245 23.325L217.708 23.8753L218.086 24.4819L218.345 25.1501L218.519 25.8442L218.577 26.5379V27.6678H218.578ZM188.173 38.1182L188.866 37.9433L189.531 37.6858L190.139 37.3066L190.661 36.8464L191.125 36.2946L191.5 35.6876L191.789 35.0198L191.935 34.3272L191.992 33.6316V26.5379L191.935 25.8442L191.789 25.1501L191.5 24.4819L191.125 23.8753L190.661 23.325L190.139 22.8621L189.531 22.483L188.866 22.2243L188.173 22.0505L187.446 21.9912H173.173L172.478 22.0505L171.785 22.2243L171.118 22.483L170.511 22.8621L169.959 23.325L169.497 23.8753L169.12 24.4819L168.86 25.1501L168.685 25.8442L168.63 26.5379V33.6316L168.685 34.3272L168.86 35.0198L169.12 35.6876L169.497 36.2946L169.959 36.8464L170.511 37.3066L171.118 37.6858L171.785 37.9433L172.478 38.1182L173.173 38.1757H187.446L188.173 38.1182ZM185.768 33.948H175.171V33.7739H175.026V26.2481H185.768V33.948ZM139.672 21.9912V26.2481H122.734V28.3056H135.126L135.851 28.3619L136.544 28.5368L137.213 28.7947L137.819 29.1739L138.341 29.6341L138.804 30.1859L139.18 30.794L139.469 31.4619L139.645 32.1533L139.672 32.8789V33.632L139.645 34.3276L139.469 35.0202L139.18 35.688L138.804 36.295L138.341 36.8468L137.819 37.307L137.213 37.6862L136.544 37.9437L135.851 38.1186L135.126 38.176H116.191V33.9484H133.476V32.2108H120.736L120.043 32.1533L119.347 31.9825L118.682 31.7194L118.073 31.3444L117.524 30.8819L117.059 30.3316L116.683 29.7208L116.422 29.0567L116.25 28.3627L116.19 27.6686V26.5387L116.25 25.8449L116.422 25.1508L116.683 24.4827L117.059 23.876L117.524 23.3257L118.073 22.8629L118.682 22.4837L119.347 22.2251L120.043 22.0513L120.736 21.992H139.672V21.9912ZM142.447 21.9912V38.1757H148.703V32.2104H161.354L162.077 32.1529L162.772 31.9821L163.41 31.722L164.02 31.344L164.568 30.8815L165.033 30.3312L165.409 29.7204L165.698 29.0564L165.843 28.3634L165.901 27.6682V26.5383L165.843 25.8446L165.698 25.1505L165.409 24.4823L165.033 23.8757L164.568 23.3253L164.02 22.8625L163.41 22.4833L162.772 22.2247L162.077 22.0509L161.354 21.9916L142.447 21.9912ZM159.473 28.3056H148.703V26.2481H159.473V28.3056Z" fill="white"/>
<path d="M127.157 58.1965V48.4071H122.898V58.1965H117.368V44.666H138.759C139.245 44.666 139.716 44.7599 140.171 44.9483C140.625 45.1364 141.022 45.3875 141.359 45.7013C141.696 46.0152 141.967 46.3879 142.171 46.8192C142.375 47.2509 142.477 47.71 142.477 48.1958V58.1968H136.971V48.4075H132.712V58.1968H127.157V58.1965Z" fill="black"/>
<path d="M160.126 58.1965V54.2902H151.184V58.1965H145.677V48.3366C145.677 47.8347 145.775 47.3598 145.972 46.9131C146.168 46.466 146.434 46.0775 146.772 45.7483C147.109 45.419 147.501 45.1563 147.948 44.9599C148.395 44.764 148.877 44.666 149.395 44.666H161.914C162.4 44.666 162.867 44.7599 163.314 44.9483C163.761 45.1364 164.153 45.3875 164.491 45.7013C164.828 46.0152 165.099 46.3879 165.303 46.8192C165.507 47.2509 165.608 47.71 165.608 48.1958V58.1968H160.126V58.1965ZM151.184 50.7604H160.126V48.4071H151.184V50.7604Z" fill="black"/>
<path d="M183.258 49.9837V48.4071H174.316V58.1965H168.81V44.666H184.576C185.094 44.666 185.603 44.7565 186.105 44.9367C186.607 45.1172 187.05 45.3684 187.435 45.6897C187.819 46.0114 188.133 46.3958 188.376 46.8429C188.619 47.29 188.741 47.7806 188.741 48.3137V49.8903C188.741 50.3456 188.635 50.7769 188.424 51.1846C188.212 51.5927 187.933 51.9575 187.588 52.2789C187.243 52.6006 186.854 52.8754 186.423 53.1025C185.991 53.33 185.555 53.4752 185.117 53.5379L188.811 58.1972H182.764L176.457 49.9849H183.258V49.9837Z" fill="black"/>
<path d="M197.448 44.666V49.7488H200.39L205.684 44.666H212.226L205.143 51.4429L212.226 58.1965H205.684L200.53 53.2781H197.448V58.1965H191.941V44.666H197.448Z" fill="black"/>
<path d="M219.991 53.2076V54.4546H234.393V58.1961H218.203C217.685 58.1961 217.203 58.0981 216.756 57.9018C216.309 57.7058 215.916 57.4431 215.579 57.1135C215.242 56.7843 214.975 56.3957 214.779 55.9487C214.582 55.5016 214.485 55.0271 214.485 54.5248V48.3366C214.485 47.8347 214.582 47.3598 214.779 46.9131C214.975 46.466 215.241 46.0775 215.579 45.7483C215.916 45.419 216.308 45.1563 216.756 44.9599C217.203 44.764 217.685 44.666 218.203 44.666H234.393V48.4075H219.991V49.6782H233.381V53.2079L219.991 53.2076Z" fill="black"/>
<path d="M257.384 44.666V48.4075H250.253V58.1968H244.747V48.4075H237.593V44.666H257.384Z" fill="black"/>
</svg>
