<svg width="128" height="82" viewBox="0 0 128 82" fill="none" xmlns="http://www.w3.org/2000/svg">
<path d="M93.6199 0H128L39.9842 38.1066L42.5952 44.1589L79.063 28.4193L81.271 27.6619L83.5352 27.2996L85.825 27.2087L88.0917 27.5574L90.2123 28.2513L92.2773 29.2867L94.1528 30.5943L95.854 32.1914L97.2491 34.0085L98.2506 36.1068L99.2064 38.3231L100.009 40.4063L100.373 42.6683L100.369 45.0013L100.033 47.2629L99.3696 49.478L98.4202 51.4953L97.1188 53.3843L95.4799 54.9901L93.6648 56.3866L91.5982 57.4737L33.8513 82H0L81.3742 47.1287L79.1667 42.0117L41.6739 58.1934L39.5625 58.9039L37.295 59.2833L35.006 59.3544L32.7366 59.0275L30.5342 58.3574L28.4656 57.3291L26.5885 56.0129L24.9722 54.3872L23.5851 52.559L22.5292 50.5933L21.0953 47.2696L20.3868 45.1463L20.0116 42.8847L19.9361 40.5922L20.2673 38.3271L20.9376 36.1143L21.9637 34.0577L23.277 32.1683L24.9052 30.5657L26.7322 29.1668L28.6951 28.1107L93.6199 0Z" fill="white"/>
</svg>
