<svg width="128" height="128" viewBox="0 0 128 128" fill="none" xmlns="http://www.w3.org/2000/svg">
<rect width="128" height="128" rx="10" fill="#25B60C"/>
<path d="M121 0.5C121 0.5 124.062 1.41499 126 3.99957C127.938 6.58414 128 7.99957 128 11.9996C128 15.9996 128 12.4996 128 14.4996C128 16.4996 128 15.9996 128 15.9996L35.6345 60.6122L38.6866 67.6978L81.3157 49.271L83.8966 48.3842L86.5435 47.9601L89.2201 47.8536L91.8698 48.2619L94.3486 49.0742L96.7625 50.2865L98.9549 51.8173L100.944 53.687L102.574 55.8144L103.745 58.2709L104.862 60.8656L105.8 63.3045L106.226 65.9527L106.221 68.684L105.828 71.3317L105.053 73.925L103.943 76.2867L102.422 78.4983L100.506 80.3782L98.3844 82.0132L95.9687 83.2859L10 128C10 128 8.5 128.216 6.5 127.5C7.14275 127.728 5.40514 127.108 6.5 127.5C5.85725 127.272 3.5 126.5 2.5 125C1.5 123.5 0.5 121.5 0.5 121.5C0.5 121.5 0 120 0 118C0 116 0 112 0 112L84.0173 71.1746L81.4369 65.184L37.6097 84.1284L35.1415 84.9603L32.4909 85.4044L29.8153 85.4876L27.1624 85.1049L24.5879 84.3205L22.1699 83.1166L19.9756 81.5756L18.0863 79.6724L16.4648 77.532L15.2305 75.2307L13.5543 71.3396L12.7261 68.8538L12.2875 66.2061L12.1993 63.5221L12.5864 60.8703L13.37 58.2798L14.5695 55.872L16.1046 53.66L18.0078 51.7838L20.1436 50.1461L22.4382 48.9096L121 0.5Z" fill="white"/>
</svg>
