<svg width="220" height="54" viewBox="0 0 220 54" fill="none" xmlns="http://www.w3.org/2000/svg">
<path d="M220 45.4469C220 49.7052 216.516 53.1892 212.258 53.1892H7.74249C3.48412 53.1892 0 49.7052 0 45.4469V7.74236C0 3.48406 3.48412 0 7.74249 0H212.257C216.516 0 220 3.48406 220 7.74236L220 45.4469Z" fill="#25B60C"/>
<mask id="mask0_2036_680" style="mask-type:luminance" maskUnits="userSpaceOnUse" x="3" y="0" width="93" height="54">
<path d="M95.2439 0H3.09717V53.1895H95.2439V0Z" fill="white"/>
</mask>
<g mask="url(#mask0_2036_680)">
<path d="M67.7188 0H90.0626L32.8608 24.7606L34.5577 28.6932L58.2583 18.466L59.6932 17.9739L61.1648 17.7385L62.6529 17.6794L64.126 17.906L65.5042 18.3569L66.8463 19.0297L68.0652 19.8793L69.1708 20.917L70.0775 22.0977L70.7283 23.4612L71.3495 24.9012L71.8711 26.2549L72.1075 27.7246L72.1052 29.2406L71.8866 30.7101L71.4556 32.1494L70.8385 33.4602L69.9928 34.6876L68.9277 35.731L67.748 36.6384L66.4049 37.3448L28.8751 53.2812H6.875L59.7603 30.6229L58.3256 27.298L33.959 37.8124L32.5868 38.2741L31.1131 38.5206L29.6255 38.5668L28.1506 38.3544L26.7193 37.919L25.3749 37.2508L24.1549 36.3955L23.1045 35.3392L22.203 34.1513L21.5168 32.8741L20.5849 30.7145L20.1244 29.3348L19.8806 27.8653L19.8315 26.3756L20.0468 24.9038L20.4824 23.4661L21.1493 22.1297L22.0028 20.9021L23.0609 19.8607L24.2484 18.9517L25.5241 18.2655L67.7188 0Z" fill="white"/>
</g>
<path d="M197.769 18.0458V23.3395H205.334V22.1448H199.82V19.4603H206.449L206.927 19.4998L207.404 19.6193L207.861 19.7966L208.279 20.0572L208.656 20.3736L208.978 20.753L209.237 21.1711L209.415 21.6302L209.535 22.1056L209.574 22.6042V23.1219L209.534 23.6001L209.414 24.0763L209.237 24.5354L208.977 24.9527L208.656 25.3321L208.279 25.65L207.86 25.9089L207.404 26.0859L206.927 26.2062L206.448 26.2457H196.654L196.158 26.2062L195.679 26.0859L195.241 25.9089L194.823 25.65L194.445 25.3321L194.127 24.9527L193.868 24.5354L193.689 24.0763L193.568 23.6001L193.53 23.1219V18.245L193.568 17.7681L193.689 17.2909L193.868 16.8315L194.127 16.4144L194.445 16.0361L194.823 15.7179L195.241 15.4572L195.679 15.2794L196.158 15.1599L196.654 15.1191H209.574V18.0458H197.769ZM191.837 26.2459H187.519V18.0458H180.055V26.2459H175.855V15.1191H188.713L189.212 15.1599L189.688 15.2794L190.147 15.4572L190.564 15.7179L190.923 16.0361L191.241 16.4144L191.499 16.8315L191.697 17.2909L191.798 17.7681L191.838 18.245V26.2459H191.837ZM169.743 15.1191H174.122V26.2459H169.743V15.1191ZM151.724 15.1191H167.888V18.0458H161.897V26.2459H157.577V18.0458H151.724V15.1191ZM150.272 19.0218L150.232 19.499L150.112 19.9762L149.934 20.4327L149.675 20.8526L149.356 21.231L148.98 21.5489L148.56 21.8067L148.103 21.9876L147.625 22.1051L147.205 22.142L147.148 22.1448V22.366V22.4253L150.034 26.2459H145.554L140.419 19.4603H145.614V18.0458H138.21V26.2459H134.009V15.1191H147.147L147.624 15.1599L148.103 15.2794L148.56 15.4572L148.979 15.7179L149.356 16.0361L149.674 16.4144L149.934 16.8315L150.112 17.2909L150.232 17.7681L150.272 18.245V19.0218H150.272ZM129.369 26.2065L129.845 26.0862L130.303 25.9092L130.721 25.6485L131.079 25.3321L131.398 24.9527L131.656 24.5354L131.855 24.0763L131.955 23.6001L131.995 23.1219V18.245L131.955 17.7681L131.855 17.2909L131.656 16.8315L131.398 16.4144L131.079 16.0361L130.721 15.7179L130.303 15.4572L129.845 15.2794L129.369 15.1599L128.869 15.1191H119.057L118.579 15.1599L118.102 15.2794L117.643 15.4572L117.227 15.7179L116.847 16.0361L116.529 16.4144L116.27 16.8315L116.091 17.2909L115.971 17.7681L115.933 18.245V23.1219L115.971 23.6001L116.091 24.0763L116.27 24.5354L116.529 24.9527L116.847 25.3321L117.227 25.6485L117.643 25.9092L118.102 26.0862L118.579 26.2065L119.057 26.2459H128.869L129.369 26.2065ZM127.716 23.3395H120.43V23.2197H120.33V18.0458H127.716V23.3395ZM96.0245 15.1191V18.0458H84.3792V19.4603H92.8988L93.3977 19.499L93.8739 19.6193L94.3338 19.7966L94.7503 20.0572L95.109 20.3736L95.4275 20.753L95.6859 21.1711L95.8846 21.6302L96.0056 22.1056L96.0245 22.6045V23.1222L96.0056 23.6004L95.8846 24.0765L95.6859 24.5357L95.4275 24.953L95.109 25.3323L94.7503 25.6488L94.3338 25.9094L93.8739 26.0865L93.3977 26.2067L92.8988 26.2462H79.8814V23.3397H91.7645V22.1451H83.006L82.5296 22.1056L82.0508 21.9882L81.5935 21.8073L81.1749 21.5494L80.7978 21.2315L80.4778 20.8531L80.2197 20.4332L80.0401 19.9767L79.9219 19.4995L79.8809 19.0223V18.2455L79.9219 17.7686L80.0401 17.2914L80.2197 16.832L80.4778 16.415L80.7978 16.0366L81.1749 15.7184L81.5935 15.4577L82.0508 15.2799L82.5296 15.1604L83.006 15.1197H96.0245V15.1191ZM97.9325 15.1191V26.2459H102.233V22.1448H110.931L111.428 22.1053L111.906 21.9879L112.344 21.8091L112.764 21.5492L113.14 21.2312L113.46 20.8529L113.719 20.433L113.917 19.9764L114.017 19.5L114.057 19.0221V18.2452L114.017 17.7683L113.917 17.2911L113.719 16.8318L113.46 16.4147L113.14 16.0364L112.764 15.7181L112.344 15.4575L111.906 15.2797L111.428 15.1602L110.931 15.1194L97.9325 15.1191ZM109.637 19.4603H102.233V18.0458H109.637V19.4603Z" fill="white"/>
<path d="M87.4205 40.0102V33.28H84.4923V40.0102H80.6904V30.708H95.3965C95.7307 30.708 96.0544 30.7725 96.3672 30.9021C96.6797 31.0314 96.9522 31.204 97.1843 31.4198C97.416 31.6355 97.6021 31.8918 97.7425 32.1883C97.8826 32.4851 97.9528 32.8008 97.9528 33.1347V40.0105H94.1673V33.2803H91.2391V40.0105H87.4205V40.0102Z" fill="black"/>
<path d="M110.087 40.0102V37.3246H103.939V40.0102H100.153V33.2315C100.153 32.8865 100.221 32.56 100.356 32.2529C100.49 31.9455 100.674 31.6784 100.906 31.452C101.137 31.2257 101.407 31.0451 101.714 30.9101C102.022 30.7754 102.353 30.708 102.709 30.708H111.316C111.65 30.708 111.971 30.7725 112.279 30.9021C112.586 31.0314 112.856 31.204 113.088 31.4198C113.32 31.6355 113.506 31.8918 113.646 32.1883C113.786 32.4851 113.856 32.8008 113.856 33.1347V40.0105H110.087V40.0102ZM103.939 34.8979H110.087V33.28H103.939V34.8979Z" fill="black"/>
<path d="M125.99 34.3639V33.28H119.842V40.0102H116.057V30.708H126.896C127.252 30.708 127.602 30.7702 127.948 30.8941C128.293 31.0182 128.597 31.1909 128.862 31.4118C129.126 31.633 129.341 31.8972 129.509 32.2046C129.676 32.512 129.76 32.8493 129.76 33.2158V34.2997C129.76 34.6127 129.687 34.9093 129.541 35.1895C129.396 35.4701 129.204 35.7209 128.967 35.9418C128.729 36.163 128.462 36.3519 128.166 36.5081C127.869 36.6645 127.569 36.7643 127.268 36.8074L129.808 40.0107H125.65L121.314 34.3647H125.99V34.3639Z" fill="black"/>
<path d="M135.746 30.708V34.2024H137.768L141.408 30.708H145.906L141.036 35.3671L145.906 40.0102H141.408L137.865 36.6288H135.746V40.0102H131.96V30.708H135.746Z" fill="black"/>
<path d="M151.244 36.5803V37.4377H161.145V40.0099H150.015C149.658 40.0099 149.327 39.9426 149.02 39.8076C148.712 39.6729 148.443 39.4922 148.211 39.2656C147.979 39.0393 147.796 38.7722 147.661 38.4648C147.526 38.1575 147.458 37.8312 147.458 37.4859V33.2315C147.458 32.8865 147.526 32.56 147.661 32.2529C147.795 31.9455 147.979 31.6784 148.211 31.452C148.443 31.2257 148.712 31.0451 149.02 30.9101C149.327 30.7754 149.659 30.708 150.015 30.708H161.145V33.2803H151.244V34.1539H160.45V36.5806L151.244 36.5803Z" fill="black"/>
<path d="M176.951 30.708V33.2803H172.049V40.0105H168.264V33.2803H163.345V30.708H176.951Z" fill="black"/>
</svg>
